{"title":"The Oranges 2011 DVDRiP XviD-PHOBOS","uid":8153103,"size":741727036,"categoryP":"video","categoryS":"movies","magnet":"?xt=urn:btih:0e8b630c748cbfeb65c9763b9d644b1fa539a848&amp;dn=The+Oranges+2011+DVDRiP+XviD-PHOBOS&amp;tr=udp%3A%2F%2Ftracker.openbittorrent.com%3A80&amp;tr=udp%3A%2F%2Fopen.demonii.com%3A1337&amp;tr=udp%3A%2F%2Ftracker.coppersurfer.tk%3A6969&amp;tr=udp%3A%2F%2Fexodus.desync.com%3A6969","seeders":2,"leechers":0,"uploader":"Gh0stNet","files":4,"time":1361099788,"description":"The enduring friendship between the Walling and Ostroff families is tested when Nina, the prodigal Ostroff daughter, returns home for the holidays after a five-year absence and enters into an affair with David, head of the Walling family.\n\nRelease Date: Today\nRetail Date: 13/Feb/2013\nRuntime: 1h 26mn\nLanguage: English\nURL: http://www.imdb.com/title/tt1313139\n\nNotes\n\nQuick google search shows DVDR available all over P2P, so including proof to prevent\nany wild theories\n\nVideo:\n\nID: 0\nFormat: MPEG-4 Visual\nFormat profile: Advanced Simple@L5\nFormat settings, BVOP: 2\nFormat settings, QPel: No\nFormat settings, GMC: No warppoints\nFormat settings, Matrix: Default (H.263)\nCodec ID: XVID\nCodec ID/Hint: XviD\nDuration: 1h 26mn\nBit rate: 999 Kbps\nWidth: 640 pixels\nHeight: 352 pixels\nDisplay aspect ratio: 16:9\nFrame rate: 25.000 fps\nColor space: YUV\nChroma subsampling: 4:2:0\nBit depth: 8 bits\nScan type: Progressive\nCompression mode: Lossy\nBits/(Pixel*Frame): 0.177\nStream size: 620 MiB (89%)\nWriting library: XviD 64\n\nAudio:\n\nID: 1\nFormat: MPEG Audio\nFormat version: Version 1\nFormat profile: Layer 3\nMode: Joint stereo\nMode extension: MS Stereo\nCodec ID: 55\nCodec ID/Hint: MP3\nDuration: 1h 26mn\nBit rate mode: Variable\nBit rate: 116 Kbps\nNominal bit rate: 128 Kbps\nChannel(s): 2 channels\nSampling rate: 48.0 KHz\nCompression mode: Lossy\nStream size: 72.0 MiB (10%)\nAlignment: Aligned on interleaves\nInterleave, duration: 24 ms (0.60 video frame)\nInterleave, preload duration: 72 ms\nTitle: audio\nWriting library: LAME3.99r\n &lt;a href=&quot;\nhttp://www.ultraimg.com/images/2tTGo.jpg&quot; rel=&quot;nofollow&quot; target=&quot;_NEW&quot;&gt;\nhttp://www.ultraimg.com/images/2tTGo.jpg&lt;/a&gt; &lt;a href=&quot;\nhttp://www.ultraimg.com/images/NS5aQ.jpg&quot; rel=&quot;nofollow&quot; target=&quot;_NEW&quot;&gt;\nhttp://www.ultraimg.com/images/NS5aQ.jpg&lt;/a&gt; &lt;a href=&quot;\nhttp://www.ultraimg.com/images/d9iYp.jpg&quot; rel=&quot;nofollow&quot; target=&quot;_NEW&quot;&gt;\nhttp://www.ultraimg.com/images/d9iYp.jpg&lt;/a&gt; &lt;a href=&quot;\nhttp://www.ultraimg.com/images/Vs9vL.jpg&quot; rel=&quot;nofollow&quot; target=&quot;_NEW&quot;&gt;\nhttp://www.ultraimg.com/images/Vs9vL.jpg&lt;/a&gt;","torrent":{"xt":"urn:btih:0e8b630c748cbfeb65c9763b9d644b1fa539a848","amp;dn":"The+Oranges+2011+DVDRiP+XviD-PHOBOS","amp;tr":["udp%3A%2F%2Ftracker.openbittorrent.com%3A80","udp%3A%2F%2Fopen.demonii.com%3A1337","udp%3A%2F%2Ftracker.coppersurfer.tk%3A6969","udp%3A%2F%2Fexodus.desync.com%3A6969"],"infoHash":"0e8b630c748cbfeb65c9763b9d644b1fa539a848","infoHashBuffer":{"type":"Buffer","data":[14,139,99,12,116,140,191,235,101,201,118,59,157,100,75,31,165,57,168,72]},"announce":[],"urlList":[]}}